<?xml version="1.0" standalone="no"?>
<svg viewBox="0 0 1200 1200" height="60" width="60" version="1.1" id="downloadSvg" xmlns="http://www.w3.org/2000/svg" xmlns:xlink="http://www.w3.org/1999/xlink"> 
<g>
	<g>
		<path fill="#FFE652" d="M189.282,287.079L88.726,461.528l100.797,174.307l201.357-0.139l100.554-174.449L390.637,286.94
			L189.282,287.079z M455.252,432.394c5.509,3.175,7.403,10.216,4.228,15.725l-88.609,153.718l-177.424,0.126h-0.009
			c-6.355,0-11.509-5.15-11.513-11.504c-0.005-6.359,5.147-11.518,11.504-11.522l164.13-0.117l81.97-142.2
			C442.708,431.108,449.756,429.216,455.252,432.394z" style="fill: rgb(253, 224, 55);"/>
		<path fill="#FFFFFF" d="M712.861,100.883H511.506L410.826,275.26l100.68,174.377h201.355L813.536,275.26L712.861,100.883z
			 M692.744,415.69l-177.429,0.124c-0.005,0-0.009,0-0.009,0c-6.355,0-11.509-5.15-11.513-11.504
			c-0.004-6.359,5.145-11.518,11.504-11.522l164.134-0.115l81.966-142.2c3.175-5.512,10.223-7.401,15.723-4.225
			c5.509,3.175,7.403,10.216,4.228,15.725L692.744,415.69z"/>
		<path fill="#FFE652" d="M1034.752,286.94l-201.355,0.139L732.838,461.528l100.797,174.307l201.355-0.139l100.558-174.449
			L1034.752,286.94z M1014.985,601.837l-177.429,0.126c-0.005,0-0.005,0-0.009,0c-6.355,0-11.509-5.15-11.513-11.504
			c-0.005-6.359,5.145-11.518,11.504-11.522l164.134-0.117l81.966-142.2c3.175-5.512,10.223-7.403,15.723-4.225
			c5.509,3.175,7.403,10.216,4.228,15.725L1014.985,601.837z" style="fill: rgb(253, 224, 55);"/>
		<path fill="#FFE652" d="M612.178,759.157c11.03-2.544,51.021-10.269,99.32-1.648c3.975,0.709,8.075,1.56,12.257,2.538
			c-2.904-25.027-14.035-48.198-32.117-66.284c-21.223-21.221-49.44-32.908-79.456-32.908s-58.233,11.687-79.452,32.908
			c-18.082,18.086-29.212,41.257-32.117,66.284c4.183-0.978,8.282-1.829,12.257-2.538
			C561.183,748.894,601.143,756.614,612.178,759.157z" style="fill: rgb(253, 224, 55);"/>
		<polygon fill="#A37462" points="574.676,848.857 548.452,888.662 675.909,888.662 649.683,848.857 		"/>
		<polygon fill="#FFE652" points="505.35,954.084 719.012,954.084 691.08,911.688 533.281,911.688 		" style="fill: rgb(253, 224, 55);"/>
		<polygon fill="#FFE652" points="589.847,825.83 634.512,825.83 612.179,791.933 		" style="fill: rgb(253, 224, 55);"/>
		<path fill="#FFFFFF" d="M558.93,830.903l34.141-51.82c-8.855-1.277-20.9-2.474-34.963-2.474c-12.422,0-26.427,0.933-41.201,3.566
			c-67.624,12.062-118.521,52.346-151.28,119.738l-2.384,4.988c-16.942,35.977,0.589,66.259,25.482,80.304
			c24.866,14.023,59.749,13.344,81.615-19.843l88.585-134.453C558.927,830.908,558.929,830.905,558.93,830.903z"/>
		<path fill="#A37462" d="M612.181,1146.466c25.743,0,50.414-14.509,70.468-41.1H541.717
			C561.768,1131.958,586.438,1146.466,612.181,1146.466z"/>
		<path fill="#FFE652" d="M527.155,1082.339h170.058c6.69-12.597,12.225-26.402,16.525-41.102H510.629
			C514.928,1055.937,520.465,1069.742,527.155,1082.339z" style="fill: rgb(253, 224, 55);"/>
		<path fill="#A37462" d="M505.042,1018.21h214.283c2.577-13.239,4.197-27.009,4.856-41.1H500.186
			C500.845,991.201,502.466,1004.971,505.042,1018.21z"/>
		<path fill="#FFFFFF" d="M858.749,899.943c-32.773-67.421-83.67-107.707-151.289-119.767c-31.496-5.611-59.488-3.504-76.169-1.093
			l122.731,186.28c21.858,33.187,56.753,33.877,81.62,19.843c24.893-14.048,42.424-44.329,25.478-80.315L858.749,899.943z"/>
	</g>
	<g>
		<path fill="#4F2612" d="M1035.891,239.582l-214.374,0.148L714.018,53.534H486.074L378.652,239.591l-214.819,0.148L50,437.224
			l114.109,197.325l227.946-0.157l107.239-186.05h201.247l107.68,186.208l227.944-0.157L1150,436.907L1035.891,239.582z
			 M378.743,611.374l-201.357,0.139L76.589,437.206l100.556-174.449l201.355-0.139l100.797,174.307L378.743,611.374z
			 M499.369,425.315l-100.68-174.377l100.68-174.377h201.355l100.675,174.377L700.724,425.315H499.369z M1022.853,611.374
			l-201.355,0.139L720.701,437.206L821.26,262.757l201.355-0.139l100.797,174.307L1022.853,611.374z"/>
		<path fill="#4F2612" d="M764.983,221.925c-5.5-3.175-12.548-1.286-15.723,4.225l-81.966,142.2l-164.134,0.115
			c-6.359,0.004-11.509,5.163-11.504,11.522c0.004,6.355,5.159,11.504,11.513,11.504c0,0,0.005,0,0.009,0l177.429-0.124
			l88.604-153.718C772.386,232.141,770.492,225.1,764.983,221.925z"/>
		<path fill="#4F2612" d="M181.292,554.614c-6.357,0.005-11.509,5.163-11.504,11.522c0.005,6.355,5.159,11.504,11.513,11.504h0.009
			l177.424-0.126l88.609-153.718c3.175-5.509,1.282-12.55-4.228-15.725c-5.496-3.177-12.543-1.286-15.723,4.225l-81.97,142.2
			L181.292,554.614z"/>
		<path fill="#4F2612" d="M867.304,865.527c-35.273-72.578-86.571-106.985-132.022-122.927c-1.537-33.8-15.418-65.358-39.501-89.443
			c-1.183-1.183-2.402-2.315-3.62-3.448l44.268-69.568c3.414-5.365,1.83-12.48-3.535-15.896c-5.361-3.414-12.48-1.837-15.894,3.533
			l-43.048,67.656c-21.793-14.257-47.257-21.928-73.908-21.928c-26.654,0-52.115,7.671-73.906,21.929l-43.045-67.655
			c-3.414-5.372-10.533-6.944-15.894-3.535c-5.365,3.414-6.949,10.531-3.535,15.894l44.266,69.574
			c-1.218,1.133-2.436,2.264-3.618,3.447c-24.083,24.083-37.964,55.642-39.501,89.442c-45.459,15.953-96.786,50.415-132.184,123.249
			l-2.348,4.909c-23.121,49.09,1.934,91.525,34.995,110.178c12.782,7.212,27.965,11.552,43.513,11.552
			c19.911,0,40.415-7.139,57.22-24.473c3.968,43.16,16.657,83.115,36.727,114.709c25.586,40.268,60.144,62.445,97.311,62.445
			c37.167,0,71.725-22.177,97.316-62.445c20.07-31.593,32.759-71.546,36.727-114.705c16.805,17.333,37.302,24.47,57.215,24.47
			c15.548,0,30.735-4.342,43.517-11.554c33.061-18.655,58.111-61.091,34.99-110.19L867.304,865.527z M520.592,669.44
			c21.219-21.221,49.436-32.908,79.452-32.908c30.016,0,58.233,11.687,79.456,32.908c18.082,18.086,29.213,41.257,32.117,66.284
			c-4.181-0.978-8.282-1.829-12.257-2.538c-48.299-8.621-88.29-0.897-99.32,1.648c-11.034-2.543-50.994-10.263-99.309-1.648
			c-3.975,0.709-8.074,1.56-12.257,2.538C491.38,710.698,502.51,687.526,520.592,669.44z M536.315,864.339l26.223-39.805h75.007
			l26.226,39.805H536.315z M678.942,887.366l27.932,42.395H493.213l27.931-42.395H678.942z M577.71,801.508l22.332-33.897
			l22.333,33.897H577.71z M458.204,941.041c-21.867,33.187-56.749,33.866-81.615,19.843c-24.893-14.046-42.424-44.327-25.483-80.304
			l2.384-4.988c32.759-67.392,83.657-107.675,151.28-119.738c14.774-2.633,28.779-3.567,41.201-3.567
			c14.063,0,26.108,1.196,34.963,2.474l-34.141,51.82c-0.001,0.002-0.003,0.005-0.005,0.007L458.204,941.041z M600.044,1122.144
			c-25.743,0-50.413-14.508-70.464-41.1h140.932C650.458,1107.635,625.787,1122.144,600.044,1122.144z M685.076,1058.017H515.017
			c-6.69-12.597-12.226-26.402-16.526-41.102h203.109C697.301,1031.615,691.766,1045.42,685.076,1058.017z M707.188,993.888H492.905
			c-2.576-13.239-4.197-27.009-4.856-41.1h223.995C711.385,966.879,709.765,980.649,707.188,993.888z M823.504,960.884
			c-24.866,14.034-59.762,13.344-81.62-19.843l-122.731-186.28c16.681-2.411,44.673-4.518,76.169,1.093
			c67.619,12.06,118.517,52.346,151.289,119.767l2.37,4.947C865.928,916.555,848.397,946.836,823.504,960.884z"/>
		<path fill="#4F2612" d="M1087.225,408.072c-5.5-3.177-12.548-1.286-15.723,4.225l-81.966,142.2l-164.134,0.117
			c-6.359,0.005-11.509,5.163-11.504,11.522c0.004,6.355,5.159,11.504,11.513,11.504c0.005,0,0.005,0,0.009,0l177.429-0.126
			l88.604-153.718C1094.627,418.288,1092.734,411.247,1087.225,408.072z"/>
	</g>
</g>
</svg>