<?xml version="1.0" encoding="utf-8"?>
<!-- Generator: Adobe Illustrator 22.0.1, SVG Export Plug-In . SVG Version: 6.00 Build 0)  -->
<svg version="1.1" id="Layer_1" xmlns="http://www.w3.org/2000/svg" xmlns:xlink="http://www.w3.org/1999/xlink" x="0px" y="0px"
	 viewBox="0 0 64 64" enable-background="new 0 0 64 64" xml:space="preserve">
<g>
	<g>
		<rect x="52.589798" y="18.5475674" fill="#2F79BB" width="6.4102006" height="25.6829739"/>
		<polygon fill="#2F79BB" points="58.6772881,45.8574791 55.6362839,53.3743477 52.5952606,45.8574791 		"/>
		<g>
			<path fill="#2F79BB" d="M57.8272209,13.9788122h-4.0690498c-0.6462669,0-1.1701698,0.5239038-1.1701698,1.1701727v1.7725945
				h6.4093933v-1.7725945C58.9973946,14.5027161,58.4734879,13.9788122,57.8272209,13.9788122z"/>
		</g>
	</g>
	<g>
		<path fill="#3F4857" d="M42.198822,9.2828808h-7.1527023V8.068779c0-1.1813402-0.9576797-2.1390209-2.139019-2.1390209H18.8696918
			c-1.1813774,0-2.1390591,0.9576807-2.1390591,2.1390209v1.2141018H9.5779705C7.0536976,9.2828808,5,11.3366165,5,13.8608513
			v39.6314201c0,2.5242729,2.0536976,4.5779724,4.5779705,4.5779724H42.198822c2.5242348,0,4.5779686-2.0536995,4.5779686-4.5779724
			V13.8608513C46.7767906,11.3366165,44.7230568,9.2828808,42.198822,9.2828808z M43.3433037,53.4922714
			c0,0.630928-0.5135536,1.1445198-1.1444817,1.1445198H9.5779705c-0.6309271,0-1.1445208-0.5135918-1.1445208-1.1445198V13.8608513
			c0-0.6309271,0.5135937-1.1444836,1.1445208-1.1444836H42.198822c0.630928,0,1.1444817,0.5135565,1.1444817,1.1444836V53.4922714z
			"/>
		<path fill="#2F79BB" d="M37.0212212,18.0219345H14.7555714c-0.9483633,0-1.7167625,0.7684002-1.7167625,1.7167263
			c0,0.9483624,0.7683992,1.7167606,1.7167625,1.7167606h22.2656498c0.9483261,0,1.7167244-0.7683983,1.7167244-1.7167606
			C38.7379456,18.7903347,37.9695473,18.0219345,37.0212212,18.0219345z"/>
		<path fill="#2F79BB" d="M37.0212212,27.313694H14.7555714c-0.9483633,0-1.7167625,0.7683983-1.7167625,1.7167244
			s0.7683992,1.7167244,1.7167625,1.7167244h22.2656498c0.9483261,0,1.7167244-0.7683983,1.7167244-1.7167244
			S37.9695473,27.313694,37.0212212,27.313694z"/>
		<path fill="#2F79BB" d="M37.0212212,36.6054153H14.7555714c-0.9483633,0-1.7167625,0.7683983-1.7167625,1.7167625
			c0,0.9483261,0.7683992,1.7167244,1.7167625,1.7167244h22.2656498c0.9483261,0,1.7167244-0.7683983,1.7167244-1.7167244
			C38.7379456,37.3738136,37.9695473,36.6054153,37.0212212,36.6054153z"/>
		<path fill="#2F79BB" d="M37.0212212,45.8971748H14.7555714c-0.9483633,0-1.7167625,0.7683983-1.7167625,1.7167244
			c0,0.9483643,0.7683992,1.7167625,1.7167625,1.7167625h22.2656498c0.9483261,0,1.7167244-0.7683983,1.7167244-1.7167625
			C38.7379456,46.6655731,37.9695473,45.8971748,37.0212212,45.8971748z"/>
	</g>
</g>
</svg>
