<svg id="Capa_1" enable-background="new 0 0 426.734 426.734" height="512" viewBox="0 0 426.734 426.734" width="512" xmlns="http://www.w3.org/2000/svg"><g><g><path d="m134.271 75.978h-79.321l-39.66 68.694 39.66 68.696h79.321l39.66-68.696z" fill="#f7be56"/><path d="m134.271 213.368h-79.321l-39.66 68.694 39.66 68.694h79.321l39.66-68.694z" fill="#f7be56"/><path d="m252.703 144.672h-79.32l-39.66 68.696 39.66 68.694h79.32l39.66-68.694z" fill="#f7be56"/><path d="m256.993 289.544h-87.951l-44.001-76.178 44.001-76.178h87.951l44.001 76.178zm-79.321-14.966h70.49l35.569-61.212-35.569-61.212h-70.49l-35.321 61.212z" fill="#3a556a"/><g fill="#f7be56"><path d="m371.534 75.978h-79.32l-39.661 68.694 39.661 68.696h79.32l39.66-68.696z"/><path d="m371.534 213.368h-79.32l-39.661 68.694 39.661 68.694h79.32l39.66-68.694z"/><path d="m252.703 282.062h-79.32l-39.66 68.694 39.66 68.694h79.32l39.66-68.694z"/><path d="m252.703 7.284h-79.32l-39.66 68.694 39.66 68.694h79.32l39.66-68.694z"/><path d="m252.703 7.284v-2.495h-80.767l-41.108 71.189 41.108 71.189h82.214l41.106-71.189-41.106-71.189h-1.447v2.495l-2.195 1.247 38.961 67.447-38.212 66.201h-76.428l-38.263-66.201 38.263-66.201h77.874v-2.493l-2.195 1.247z"/></g><g fill="#fcd462"><path d="m142.951 100.722h-79.37l-36.767 63.706c12.921 7.234 14.168 28.137 23.946 39.261 8.181 9.28 23.996 8.531 32.776 14.118 4.984.289 9.981.289 14.966 0 9.678-.649 19.157-2.693 28.784-4.041 14.068-20.304 24.595-43.402 39.91-62.808.79-.93 1.715-1.737 2.743-2.395z"/><path d="m109.428 352.152c5.075-1.112 10.277-1.532 15.465-1.247 1.987.395 3.903 1.084 5.688 2.046 1.746-3.892 2.943-8.181 4.689-11.673 5.742-9.801 12.143-19.201 19.157-28.137 5.737-8.331 9.977-18.01 17.86-24.045l-29.335-50.786h-79.37l-39.91 68.694 27.038 46.045c19.574.776 39.176.476 58.718-.897z"/><path d="m179.319 285.005c15.265-5.538 37.117-5.338 53.129-4.291 9.18.549 17.061 4.091 24.245-2.146 5.438-4.689 8.431-14.966 11.673-21.352 5.737-11.324 11.673-28.336 22.299-36.118h.349l-29.933-51.433h-79.071l-39.659 68.646 29.533 51.134c2.224-1.87 4.734-3.37 7.435-4.44z"/><path d="m341.203 213.766c8.63-.997 17.66.399 25.941-.499 9.977-1.047 9.977-4.341 15.215-12.772 9.478-14.966 17.261-33.475 27.637-48.091l-29.933-51.683h-79.22l-39.91 68.694 29.933 51.533c12.821-9.078 35.72-5.436 50.337-7.182z"/><path d="m355.669 354.797c15.265.799 19.257-5.737 27.987-16.712 10.327-13.07 22.998-26.64 23.396-44.199.028-2.215.592-4.388 1.646-6.335l-28.536-49.239h-79.32l-39.91 68.694 29.933 51.633c18.759-12.872 43.802-4.89 64.804-3.842z"/><path d="m191.441 424.339c14.966-.549 34.422 2.345 48.89-.799 23.596-4.989 29.034-46.145 46.644-61.96 1.276-1.192 2.664-2.262 4.141-3.193l-29.933-51.583h-79.17l-39.66 68.694 28.486 49.338c6.833.002 13.718-.198 20.602-.497z"/><path d="m261.334 32.027h-79.321l-39.66 68.695 31.578 43.95h81.565l33.973-63.955z"/></g><path d="m419.824 144.672-44.001-75.978h-79.171l-39.909-68.694h-87.701l-39.66 68.694h-78.721l-44.001 75.978 39.66 68.694-39.66 68.696 44.001 75.978h78.721l39.91 68.694h87.701l39.91-68.694h79.17l44.001-76.178-39.91-68.694zm-52.631-61.011 35.62 61.011-35.619 61.212h-70.69l-35.221-61.062 35.371-61.162h70.539zm-83.61 129.707-35.421 61.212h-69.842l-35.371-61.212 35.371-61.212h69.842zm-105.911-198.602h70.49l35.271 61.062-35.271 61.36h-69.842l-35.669-61.71zm-118.381 68.895h69.842l35.619 61.71-34.921 60.713h-70.54l-35.371-61.412zm69.841 259.811h-69.842l-35.371-61.41 35.371-61.212h70.69l34.921 60.713zm119.031 68.496h-70.49l-34.921-60.713 35.569-61.71h69.842l35.421 61.36zm119.03-68.895h-70.54l-35.371-61.112 35.221-61.112h70.69l35.619 61.212z" fill="#985b3f"/></g></g></svg>